<svg xmlns="http://www.w3.org/2000/svg" viewBox="0 0 50 50"><circle cx="25.5" cy="25.1" r="23.2" style="fill:#1354f9"/><path d="M16.8 33c.6-.7 2.5-3.7 5.2-5.8-3.4-.5-6.6-1.5-7.5-1.8-1.6-.6-2.4-2.3-1.8-3.9s2.3-2.4 3.9-1.8c.8.3 4.2 1.9 7 3.6-.6-3.3-1.1-7.2-1.1-8.1 0-1.7 1.3-3 3-3s3 1.3 3 3c0 .9-.4 4.8-1.1 8.1 2.8-1.7 6.2-3.3 7-3.6 1.6-.6 3.3.2 3.9 1.8s-.2 3.3-1.8 3.9c-.9.3-4.1 1.3-7.5 1.8 2.7 2.1 4.7 5.1 5.3 5.8 1.1 1.3.9 3.2-.4 4.2-1.3 1.1-3.2.9-4.2-.4-.6-.7-2.6-3.9-4.2-6.8-1.6 2.9-3.5 6.1-4.1 6.8-1.1 1.3-3 1.4-4.2.4-1.3-1-1.5-2.9-.4-4.2" style="fill:#fff"/></svg>